<svg width="26" height="30" viewBox="0 0 26 30" fill="none" xmlns="http://www.w3.org/2000/svg">
<path d="M17.9018 28.2169L10.3153 29.9702C9.77476 30.0951 9.21412 29.8159 9.06927 29.3497C8.9245 28.8836 9.24818 28.4 9.78861 28.2751L17.3752 26.5219C17.9157 26.397 18.4763 26.6761 18.6212 27.1423C18.7661 27.6085 18.4422 28.092 17.9018 28.2169ZM14.3892 8.10877C14.3212 8.90641 13.7981 9.35599 12.9859 9.3446C12.1773 9.33335 11.5888 8.85537 11.6082 8.12752C11.6271 7.41933 12.1419 6.95412 13.0177 6.96238C13.8929 6.97051 14.3267 7.41655 14.3892 8.10877ZM24.1152 5.42058C21.0972 1.12142 15.1196 -0.967401 9.5663 0.431972C4.70638 1.65669 1.53763 4.42433 0.385432 8.68078C-0.755011 12.8937 0.664503 16.5173 4.25709 19.552C5.09962 20.2637 5.87427 21.1258 6.34924 22.0457C6.82542 22.9678 6.97808 23.2561 8.13793 23.014C9.74875 22.6779 11.338 22.2649 12.9485 21.9275C13.7741 21.7545 14.0878 21.357 14.0823 20.6391C14.0603 17.7419 14.0677 14.8445 14.0799 11.9472C14.0826 11.2913 13.8436 10.7513 13.0255 10.7349C12.1973 10.7183 11.9437 11.2403 11.9506 11.9089C11.9698 13.7873 11.9564 15.6658 11.9563 17.5443C11.9562 20.5662 11.9563 20.5662 8.5112 21.0004C7.20152 19.706 6.0089 18.5426 4.83536 17.3649C0.62352 13.1381 1.39375 6.88974 6.65046 3.65357C10.427 1.3285 14.484 1.19912 18.5287 3.16225C22.2844 4.98516 24.3276 8.74071 23.786 12.3737C23.4242 14.8006 22.0806 16.7379 20.0876 18.4033C18.8848 19.4083 17.7889 20.4904 17.3943 21.9437C17.2098 22.6234 16.7679 22.9606 16.0044 23.1229C16.1471 23.0085 7.77544 25.0316 7.77544 25.0316C7.2458 25.154 6.92864 25.6278 7.07059 26.0846L7.09241 26.1552C7.23437 26.6119 7.78373 26.8856 8.31337 26.7632C8.31337 26.7632 17.919 24.5369 18.045 24.5062C18.9345 24.2944 19.4187 23.7482 19.439 22.9686C19.4692 21.8048 20.0556 20.899 21.0097 20.1257C21.5205 19.7117 22.029 19.294 22.5097 18.8545C26.4773 15.2251 27.132 9.71828 24.1152 5.42058Z" fill="black"/>
</svg>
