<svg width="100" height="125" viewBox="0 0 100 125" fill="none" xmlns="http://www.w3.org/2000/svg">
<path fill-rule="evenodd" clip-rule="evenodd" d="M6.25 0C4.5924 0 3.00269 0.65848 1.83058 1.83058C0.658481 3.00268 0 4.5924 0 6.25V106.25C0 111.223 1.97544 115.992 5.49175 119.508C9.00806 123.025 13.7772 125 18.75 125H81.25C86.2228 125 90.992 123.025 94.5083 119.508C98.0246 115.992 100 111.223 100 106.25V37.5C99.9996 35.8425 99.3409 34.2531 98.1688 33.0813L66.9187 1.83125C65.7469 0.659066 64.1575 0.000353984 62.5 0H6.25ZM62.5 15.0875L84.9125 37.5H62.5V15.0875ZM73.1687 73.1687C74.3072 71.99 74.9372 70.4112 74.923 68.7725C74.9087 67.1338 74.2514 65.5662 73.0926 64.4074C71.9338 63.2486 70.3662 62.5913 68.7275 62.577C67.0888 62.5628 65.51 63.1928 64.3313 64.3313L43.75 84.9125L35.6687 76.8313C34.49 75.6928 32.9112 75.0628 31.2725 75.077C29.6338 75.0913 28.0662 75.7486 26.9074 76.9074C25.7486 78.0662 25.0913 79.6338 25.077 81.2725C25.0628 82.9112 25.6928 84.49 26.8313 85.6687L39.3313 98.1688C40.5033 99.3404 42.0927 99.9987 43.75 99.9987C45.4073 99.9987 46.9967 99.3404 48.1687 98.1688L73.1687 73.1687Z" fill="#3F86F8"/>
</svg>
