<svg width="27" height="30" viewBox="0 0 27 30" fill="none" xmlns="http://www.w3.org/2000/svg">
<path d="M9.79269 4.66542L10.6933 2.3405C10.8452 1.94686 11.1125 1.60827 11.46 1.36908C11.8076 1.12989 12.2193 1.00125 12.6412 1H14.3588C14.7807 1.00125 15.1924 1.12989 15.54 1.36908C15.8875 1.60827 16.1548 1.94686 16.3067 2.3405L17.2073 4.66542L20.2653 6.42482L22.7369 6.04781C23.1484 5.99195 23.5673 6.05969 23.9402 6.24244C24.3132 6.42518 24.6234 6.71467 24.8314 7.07413L25.6692 8.54029C25.8839 8.90547 25.9828 9.32716 25.9529 9.74972C25.923 10.1723 25.7656 10.5758 25.5016 10.9071L23.9726 12.855V16.3738L25.5435 18.3217C25.8075 18.653 25.9649 19.0566 25.9948 19.4791C26.0247 19.9017 25.9258 20.3234 25.7111 20.6885L24.8733 22.1547C24.6652 22.5142 24.355 22.8037 23.9821 22.9864C23.6091 23.1691 23.1903 23.2369 22.7788 23.181L20.3072 22.804L17.2492 24.5634L16.3486 26.8883C16.1967 27.282 15.9294 27.6206 15.5819 27.8598C15.2343 28.0989 14.8226 28.2276 14.4006 28.2288H12.6412C12.2193 28.2276 11.8076 28.0989 11.46 27.8598C11.1125 27.6206 10.8452 27.282 10.6933 26.8883L9.79269 24.5634L6.73468 22.804L4.26314 23.181C3.8516 23.2369 3.43275 23.1691 3.0598 22.9864C2.68685 22.8037 2.37665 22.5142 2.16861 22.1547L1.3308 20.6885C1.11612 20.3234 1.01721 19.9017 1.04712 19.4791C1.07704 19.0566 1.23437 18.653 1.49837 18.3217L3.02737 16.3738V12.855L1.45648 10.9071C1.19248 10.5758 1.03515 10.1723 1.00523 9.74972C0.975315 9.32716 1.07423 8.90547 1.28891 8.54029L2.12672 7.07413C2.33476 6.71467 2.64496 6.42518 3.01791 6.24244C3.39085 6.05969 3.80971 5.99195 4.22125 6.04781L6.69279 6.42482L9.79269 4.66542ZM9.31095 14.6144C9.31095 15.4429 9.55663 16.2528 10.0169 16.9417C10.4772 17.6306 11.1315 18.1675 11.8969 18.4846C12.6624 18.8017 13.5046 18.8846 14.3172 18.723C15.1298 18.5613 15.8763 18.1624 16.4621 17.5765C17.048 16.9907 17.4469 16.2443 17.6086 15.4317C17.7702 14.6191 17.6872 13.7768 17.3702 13.0113C17.0531 12.2459 16.5162 11.5916 15.8273 11.1314C15.1384 10.6711 14.3285 10.4254 13.5 10.4254C12.389 10.4254 11.3235 10.8667 10.5379 11.6523C9.75229 12.4379 9.31095 13.5034 9.31095 14.6144Z" stroke="#3F86F8" stroke-width="2" stroke-linecap="round" stroke-linejoin="round"/>
</svg>
